# xmcd
#
# Track frame offsets:
#	150
#	25850
#	35750
#	50475
#	59400
#	71975
#	87650
#	100250
#	110925
#	122575
#	134350
#	147400
#	161687
#	171550
#	181025
#	193587
#
# Disc length: 2737 seconds
#
# Revision: 1
# Processed by: cddbd v1.5.2PL0 Copyright (c) Steve Scherf et al.
# Submitted via: audiograbber 1.83.01
#
DISCID=f80aaf10
DTITLE=Various Artist - WHOLE LOTTA 'SHAKIN' - 16 R&R Greats
DYEAR=1992
DGENRE=
TTITLE0=Jerry Lee Lewis - Whole Lotta Shakin' Goin' On
TTITLE1=Little Richard - Ready Teddy
TTITLE2=Fats Domino - I'm In Love Again
TTITLE3=Duane Eddy - Because They're Young
TTITLE4=The Coasters - Poison Ivy
TTITLE5=Bo Diddley - Cops And Robbers
TTITLE6=Carl Perkins - Rock Island Line
TTITLE7=The Olympics - Western Movies
TTITLE8=Pat Boone - Speedy Gonzales
TTITLE9=The Markeys - Last Night
TTITLE10=LLoyd Price - Stagger Lee
TTITLE11=The Cleftones - This Little Girl Of Mine
TTITLE12=Del Shannon - Do You Wanna Dance
TTITLE13=The Ventures - Perfidia
TTITLE14=Bill Haley - Skinny Minnie
TTITLE15=Rusty York - Sugaree
EXTD=
EXTT0=
EXTT1=
EXTT2=
EXTT3=
EXTT4=
EXTT5=
EXTT6=
EXTT7=
EXTT8=
EXTT9=
EXTT10=
EXTT11=
EXTT12=
EXTT13=
EXTT14=
EXTT15=
PLAYORDER=
